# Wavefront OBJ file automatically generated by Tiled2Unity

# Vertices (Count = 441)
v 0 -90 0
v -102 -90 0
v -102 0 0
v 0 0 0
v -204 -90 0
v -204 0 0
v -306 -90 0
v -306 0 0
v -408 -90 0
v -408 0 0
v -510 -90 0
v -510 0 0
v -612 -90 0
v -612 0 0
v -714 -90 0
v -714 0 0
v -816 -90 0
v -816 0 0
v -918 -90 0
v -918 0 0
v -1020 -90 0
v -1020 0 0
v -1122 -90 0
v -1122 0 0
v -1224 -90 0
v -1224 0 0
v -1326 -90 0
v -1326 0 0
v -1428 -90 0
v -1428 0 0
v -1530 -90 0
v -1530 0 0
v -1632 -90 0
v -1632 0 0
v -1734 -90 0
v -1734 0 0
v -1836 -90 0
v -1836 0 0
v -1938 -90 0
v -1938 0 0
v -2040 -90 0
v -2040 0 0
v 0 -180 0
v -102 -180 0
v -204 -180 0
v -306 -180 0
v -408 -180 0
v -510 -180 0
v -612 -180 0
v -714 -180 0
v -816 -180 0
v -918 -180 0
v -1020 -180 0
v -1122 -180 0
v -1224 -180 0
v -1326 -180 0
v -1428 -180 0
v -1530 -180 0
v -1632 -180 0
v -1734 -180 0
v -1836 -180 0
v -1938 -180 0
v -2040 -180 0
v 0 -270 0
v -102 -270 0
v -204 -270 0
v -306 -270 0
v -408 -270 0
v -510 -270 0
v -612 -270 0
v -714 -270 0
v -816 -270 0
v -918 -270 0
v -1020 -270 0
v -1122 -270 0
v -1224 -270 0
v -1326 -270 0
v -1428 -270 0
v -1530 -270 0
v -1632 -270 0
v -1734 -270 0
v -1836 -270 0
v -1938 -270 0
v -2040 -270 0
v 0 -360 0
v -102 -360 0
v -204 -360 0
v -306 -360 0
v -408 -360 0
v -510 -360 0
v -612 -360 0
v -714 -360 0
v -816 -360 0
v -918 -360 0
v -1020 -360 0
v -1122 -360 0
v -1224 -360 0
v -1326 -360 0
v -1428 -360 0
v -1530 -360 0
v -1632 -360 0
v -1734 -360 0
v -1836 -360 0
v -1938 -360 0
v -2040 -360 0
v 0 -450 0
v -102 -450 0
v -204 -450 0
v -306 -450 0
v -408 -450 0
v -510 -450 0
v -612 -450 0
v -714 -450 0
v -816 -450 0
v -918 -450 0
v -1020 -450 0
v -1122 -450 0
v -1224 -450 0
v -1326 -450 0
v -1428 -450 0
v -1530 -450 0
v -1632 -450 0
v -1734 -450 0
v -1836 -450 0
v -1938 -450 0
v -2040 -450 0
v 0 -540 0
v -102 -540 0
v -204 -540 0
v -306 -540 0
v -408 -540 0
v -510 -540 0
v -612 -540 0
v -714 -540 0
v -816 -540 0
v -918 -540 0
v -1020 -540 0
v -1122 -540 0
v -1224 -540 0
v -1326 -540 0
v -1428 -540 0
v -1530 -540 0
v -1632 -540 0
v -1734 -540 0
v -1836 -540 0
v -1938 -540 0
v -2040 -540 0
v 0 -630 0
v -102 -630 0
v -204 -630 0
v -306 -630 0
v -408 -630 0
v -510 -630 0
v -612 -630 0
v -714 -630 0
v -816 -630 0
v -918 -630 0
v -1020 -630 0
v -1122 -630 0
v -1224 -630 0
v -1326 -630 0
v -1428 -630 0
v -1530 -630 0
v -1632 -630 0
v -1734 -630 0
v -1836 -630 0
v -1938 -630 0
v -2040 -630 0
v 0 -720 0
v -102 -720 0
v -204 -720 0
v -306 -720 0
v -408 -720 0
v -510 -720 0
v -612 -720 0
v -714 -720 0
v -816 -720 0
v -918 -720 0
v -1020 -720 0
v -1122 -720 0
v -1224 -720 0
v -1326 -720 0
v -1428 -720 0
v -1530 -720 0
v -1632 -720 0
v -1734 -720 0
v -1836 -720 0
v -1938 -720 0
v -2040 -720 0
v 0 -810 0
v -102 -810 0
v -204 -810 0
v -306 -810 0
v -408 -810 0
v -510 -810 0
v -612 -810 0
v -714 -810 0
v -816 -810 0
v -918 -810 0
v -1020 -810 0
v -1122 -810 0
v -1224 -810 0
v -1326 -810 0
v -1428 -810 0
v -1530 -810 0
v -1632 -810 0
v -1734 -810 0
v -1836 -810 0
v -1938 -810 0
v -2040 -810 0
v 0 -900 0
v -102 -900 0
v -204 -900 0
v -306 -900 0
v -408 -900 0
v -510 -900 0
v -612 -900 0
v -714 -900 0
v -816 -900 0
v -918 -900 0
v -1020 -900 0
v -1122 -900 0
v -1224 -900 0
v -1326 -900 0
v -1428 -900 0
v -1530 -900 0
v -1632 -900 0
v -1734 -900 0
v -1836 -900 0
v -1938 -900 0
v -2040 -900 0
v 0 -990 0
v -102 -990 0
v -204 -990 0
v -306 -990 0
v -408 -990 0
v -510 -990 0
v -612 -990 0
v -714 -990 0
v -816 -990 0
v -918 -990 0
v -1020 -990 0
v -1122 -990 0
v -1224 -990 0
v -1326 -990 0
v -1428 -990 0
v -1530 -990 0
v -1632 -990 0
v -1734 -990 0
v -1836 -990 0
v -1938 -990 0
v -2040 -990 0
v 0 -1080 0
v -102 -1080 0
v -204 -1080 0
v -306 -1080 0
v -408 -1080 0
v -510 -1080 0
v -612 -1080 0
v -714 -1080 0
v -816 -1080 0
v -918 -1080 0
v -1020 -1080 0
v -1122 -1080 0
v -1224 -1080 0
v -1326 -1080 0
v -1428 -1080 0
v -1530 -1080 0
v -1632 -1080 0
v -1734 -1080 0
v -1836 -1080 0
v -1938 -1080 0
v -2040 -1080 0
v 0 -1170 0
v -102 -1170 0
v -204 -1170 0
v -306 -1170 0
v -408 -1170 0
v -510 -1170 0
v -612 -1170 0
v -714 -1170 0
v -816 -1170 0
v -918 -1170 0
v -1020 -1170 0
v -1122 -1170 0
v -1224 -1170 0
v -1326 -1170 0
v -1428 -1170 0
v -1530 -1170 0
v -1632 -1170 0
v -1734 -1170 0
v -1836 -1170 0
v -1938 -1170 0
v -2040 -1170 0
v 0 -1260 0
v -102 -1260 0
v -204 -1260 0
v -306 -1260 0
v -408 -1260 0
v -510 -1260 0
v -612 -1260 0
v -714 -1260 0
v -816 -1260 0
v -918 -1260 0
v -1020 -1260 0
v -1122 -1260 0
v -1224 -1260 0
v -1326 -1260 0
v -1428 -1260 0
v -1530 -1260 0
v -1632 -1260 0
v -1734 -1260 0
v -1836 -1260 0
v -1938 -1260 0
v -2040 -1260 0
v 0 -1350 0
v -102 -1350 0
v -204 -1350 0
v -306 -1350 0
v -408 -1350 0
v -510 -1350 0
v -612 -1350 0
v -714 -1350 0
v -816 -1350 0
v -918 -1350 0
v -1020 -1350 0
v -1122 -1350 0
v -1224 -1350 0
v -1326 -1350 0
v -1428 -1350 0
v -1530 -1350 0
v -1632 -1350 0
v -1734 -1350 0
v -1836 -1350 0
v -1938 -1350 0
v -2040 -1350 0
v 0 -1440 0
v -102 -1440 0
v -204 -1440 0
v -306 -1440 0
v -408 -1440 0
v -510 -1440 0
v -612 -1440 0
v -714 -1440 0
v -816 -1440 0
v -918 -1440 0
v -1020 -1440 0
v -1122 -1440 0
v -1224 -1440 0
v -1326 -1440 0
v -1428 -1440 0
v -1530 -1440 0
v -1632 -1440 0
v -1734 -1440 0
v -1836 -1440 0
v -1938 -1440 0
v -2040 -1440 0
v 0 -1530 0
v -102 -1530 0
v -204 -1530 0
v -306 -1530 0
v -408 -1530 0
v -510 -1530 0
v -612 -1530 0
v -714 -1530 0
v -816 -1530 0
v -918 -1530 0
v -1020 -1530 0
v -1122 -1530 0
v -1224 -1530 0
v -1326 -1530 0
v -1428 -1530 0
v -1530 -1530 0
v -1632 -1530 0
v -1734 -1530 0
v -1836 -1530 0
v -1938 -1530 0
v -2040 -1530 0
v 0 -1620 0
v -102 -1620 0
v -204 -1620 0
v -306 -1620 0
v -408 -1620 0
v -510 -1620 0
v -612 -1620 0
v -714 -1620 0
v -816 -1620 0
v -918 -1620 0
v -1020 -1620 0
v -1122 -1620 0
v -1224 -1620 0
v -1326 -1620 0
v -1428 -1620 0
v -1530 -1620 0
v -1632 -1620 0
v -1734 -1620 0
v -1836 -1620 0
v -1938 -1620 0
v -2040 -1620 0
v 0 -1710 0
v -102 -1710 0
v -204 -1710 0
v -306 -1710 0
v -408 -1710 0
v -510 -1710 0
v -612 -1710 0
v -714 -1710 0
v -816 -1710 0
v -918 -1710 0
v -1020 -1710 0
v -1122 -1710 0
v -1224 -1710 0
v -1326 -1710 0
v -1428 -1710 0
v -1530 -1710 0
v -1632 -1710 0
v -1734 -1710 0
v -1836 -1710 0
v -1938 -1710 0
v -2040 -1710 0
v 0 -1800 0
v -102 -1800 0
v -204 -1800 0
v -306 -1800 0
v -408 -1800 0
v -510 -1800 0
v -612 -1800 0
v -714 -1800 0
v -816 -1800 0
v -918 -1800 0
v -1020 -1800 0
v -1122 -1800 0
v -1224 -1800 0
v -1326 -1800 0
v -1428 -1800 0
v -1530 -1800 0
v -1632 -1800 0
v -1734 -1800 0
v -1836 -1800 0
v -1938 -1800 0
v -2040 -1800 0

# Texture cooridinates (Count = 20)
vt 0.2298518 0.5632288
vt 0.4593374 0.5632288
vt 0.4593374 0.9998779
vt 0.2298518 0.9998779
vt 0.0001220703 0.1263357
vt 0.2296077 0.1263357
vt 0.2296077 0.5629847
vt 0.0001220703 0.5629847
vt 0.0001220703 0.5632288
vt 0.2296077 0.5632288
vt 0.2296077 0.9998779
vt 0.0001220703 0.9998779
vt 0.6893113 0.5632288
vt 0.9187968 0.5632288
vt 0.9187968 0.9998779
vt 0.6893113 0.9998779
vt 0.4595815 0.5632288
vt 0.6890671 0.5632288
vt 0.6890671 0.9998779
vt 0.4595815 0.9998779

# Normal
vn 0 0 -1

# Groups (Count = 1)

g mesh_0001
f 1/1/1 2/2/1 3/3/1 4/4/1
f 2/1/1 5/2/1 6/3/1 3/4/1
f 5/5/1 7/6/1 8/7/1 6/8/1
f 7/9/1 9/10/1 10/11/1 8/12/1
f 9/13/1 11/14/1 12/15/1 10/16/1
f 11/9/1 13/10/1 14/11/1 12/12/1
f 13/9/1 15/10/1 16/11/1 14/12/1
f 15/17/1 17/18/1 18/19/1 16/20/1
f 17/13/1 19/14/1 20/15/1 18/16/1
f 19/5/1 21/6/1 22/7/1 20/8/1
f 21/9/1 23/10/1 24/11/1 22/12/1
f 23/13/1 25/14/1 26/15/1 24/16/1
f 25/5/1 27/6/1 28/7/1 26/8/1
f 27/9/1 29/10/1 30/11/1 28/12/1
f 29/13/1 31/14/1 32/15/1 30/16/1
f 31/9/1 33/10/1 34/11/1 32/12/1
f 33/5/1 35/6/1 36/7/1 34/8/1
f 35/13/1 37/14/1 38/15/1 36/16/1
f 37/1/1 39/2/1 40/3/1 38/4/1
f 39/1/1 41/2/1 42/3/1 40/4/1
f 43/1/1 44/2/1 2/3/1 1/4/1
f 44/17/1 45/18/1 5/19/1 2/20/1
f 45/9/1 46/10/1 7/11/1 5/12/1
f 46/9/1 47/10/1 9/11/1 7/12/1
f 47/5/1 48/6/1 11/7/1 9/8/1
f 48/9/1 49/10/1 13/11/1 11/12/1
f 49/9/1 50/10/1 15/11/1 13/12/1
f 50/9/1 51/10/1 17/11/1 15/12/1
f 51/9/1 52/10/1 19/11/1 17/12/1
f 52/9/1 53/10/1 21/11/1 19/12/1
f 53/9/1 54/10/1 23/11/1 21/12/1
f 54/5/1 55/6/1 25/7/1 23/8/1
f 55/9/1 56/10/1 27/11/1 25/12/1
f 56/9/1 57/10/1 29/11/1 27/12/1
f 57/9/1 58/10/1 31/11/1 29/12/1
f 58/9/1 59/10/1 33/11/1 31/12/1
f 59/9/1 60/10/1 35/11/1 33/12/1
f 60/5/1 61/6/1 37/7/1 35/8/1
f 61/9/1 62/10/1 39/11/1 37/12/1
f 62/9/1 63/10/1 41/11/1 39/12/1
f 64/9/1 65/10/1 44/11/1 43/12/1
f 65/9/1 66/10/1 45/11/1 44/12/1
f 66/9/1 67/10/1 46/11/1 45/12/1
f 67/9/1 68/10/1 47/11/1 46/12/1
f 68/1/1 69/2/1 48/3/1 47/4/1
f 69/9/1 70/10/1 49/11/1 48/12/1
f 70/9/1 71/10/1 50/11/1 49/12/1
f 71/9/1 72/10/1 51/11/1 50/12/1
f 72/9/1 73/10/1 52/11/1 51/12/1
f 73/1/1 74/2/1 53/3/1 52/4/1
f 74/9/1 75/10/1 54/11/1 53/12/1
f 75/9/1 76/10/1 55/11/1 54/12/1
f 76/9/1 77/10/1 56/11/1 55/12/1
f 77/9/1 78/10/1 57/11/1 56/12/1
f 78/13/1 79/14/1 58/15/1 57/16/1
f 79/9/1 80/10/1 59/11/1 58/12/1
f 80/9/1 81/10/1 60/11/1 59/12/1
f 81/9/1 82/10/1 61/11/1 60/12/1
f 82/9/1 83/10/1 62/11/1 61/12/1
f 83/9/1 84/10/1 63/11/1 62/12/1
f 85/1/1 86/2/1 65/3/1 64/4/1
f 86/9/1 87/10/1 66/11/1 65/12/1
f 87/9/1 88/10/1 67/11/1 66/12/1
f 88/9/1 89/10/1 68/11/1 67/12/1
f 89/9/1 90/10/1 69/11/1 68/12/1
f 90/9/1 91/10/1 70/11/1 69/12/1
f 91/9/1 92/10/1 71/11/1 70/12/1
f 92/9/1 93/10/1 72/11/1 71/12/1
f 93/9/1 94/10/1 73/11/1 72/12/1
f 94/9/1 95/10/1 74/11/1 73/12/1
f 95/9/1 96/10/1 75/11/1 74/12/1
f 96/13/1 97/14/1 76/15/1 75/16/1
f 97/9/1 98/10/1 77/11/1 76/12/1
f 98/9/1 99/10/1 78/11/1 77/12/1
f 99/9/1 100/10/1 79/11/1 78/12/1
f 100/9/1 101/10/1 80/11/1 79/12/1
f 101/9/1 102/10/1 81/11/1 80/12/1
f 102/9/1 103/10/1 82/11/1 81/12/1
f 103/9/1 104/10/1 83/11/1 82/12/1
f 104/9/1 105/10/1 84/11/1 83/12/1
f 106/13/1 107/14/1 86/15/1 85/16/1
f 107/5/1 108/6/1 87/7/1 86/8/1
f 108/1/1 109/2/1 88/3/1 87/4/1
f 109/9/1 110/10/1 89/11/1 88/12/1
f 110/9/1 111/10/1 90/11/1 89/12/1
f 111/9/1 112/10/1 91/11/1 90/12/1
f 112/1/1 113/2/1 92/3/1 91/4/1
f 113/5/1 114/6/1 93/7/1 92/8/1
f 114/9/1 115/10/1 94/11/1 93/12/1
f 115/1/1 116/2/1 95/3/1 94/4/1
f 116/9/1 117/10/1 96/11/1 95/12/1
f 117/9/1 118/10/1 97/11/1 96/12/1
f 118/9/1 119/10/1 98/11/1 97/12/1
f 119/9/1 120/10/1 99/11/1 98/12/1
f 120/9/1 121/10/1 100/11/1 99/12/1
f 121/9/1 122/10/1 101/11/1 100/12/1
f 122/1/1 123/2/1 102/3/1 101/4/1
f 123/5/1 124/6/1 103/7/1 102/8/1
f 124/9/1 125/10/1 104/11/1 103/12/1
f 125/9/1 126/10/1 105/11/1 104/12/1
f 127/9/1 128/10/1 107/11/1 106/12/1
f 128/9/1 129/10/1 108/11/1 107/12/1
f 129/9/1 130/10/1 109/11/1 108/12/1
f 130/9/1 131/10/1 110/11/1 109/12/1
f 131/1/1 132/2/1 111/3/1 110/4/1
f 132/9/1 133/10/1 112/11/1 111/12/1
f 133/9/1 134/10/1 113/11/1 112/12/1
f 134/9/1 135/10/1 114/11/1 113/12/1
f 135/1/1 136/2/1 115/3/1 114/4/1
f 136/9/1 137/10/1 116/11/1 115/12/1
f 137/9/1 138/10/1 117/11/1 116/12/1
f 138/9/1 139/10/1 118/11/1 117/12/1
f 139/9/1 140/10/1 119/11/1 118/12/1
f 140/1/1 141/2/1 120/3/1 119/4/1
f 141/9/1 142/10/1 121/11/1 120/12/1
f 142/13/1 143/14/1 122/15/1 121/16/1
f 143/13/1 144/14/1 123/15/1 122/16/1
f 144/9/1 145/10/1 124/11/1 123/12/1
f 145/5/1 146/6/1 125/7/1 124/8/1
f 146/9/1 147/10/1 126/11/1 125/12/1
f 148/9/1 149/10/1 128/11/1 127/12/1
f 149/9/1 150/10/1 129/11/1 128/12/1
f 150/9/1 151/10/1 130/11/1 129/12/1
f 151/9/1 152/10/1 131/11/1 130/12/1
f 152/9/1 153/10/1 132/11/1 131/12/1
f 153/9/1 154/10/1 133/11/1 132/12/1
f 154/9/1 155/10/1 134/11/1 133/12/1
f 155/9/1 156/10/1 135/11/1 134/12/1
f 156/9/1 157/10/1 136/11/1 135/12/1
f 157/9/1 158/10/1 137/11/1 136/12/1
f 158/9/1 159/10/1 138/11/1 137/12/1
f 159/9/1 160/10/1 139/11/1 138/12/1
f 160/9/1 161/10/1 140/11/1 139/12/1
f 161/9/1 162/10/1 141/11/1 140/12/1
f 162/9/1 163/10/1 142/11/1 141/12/1
f 163/9/1 164/10/1 143/11/1 142/12/1
f 164/1/1 165/2/1 144/3/1 143/4/1
f 165/13/1 166/14/1 145/15/1 144/16/1
f 166/9/1 167/10/1 146/11/1 145/12/1
f 167/1/1 168/2/1 147/3/1 146/4/1
f 169/9/1 170/10/1 149/11/1 148/12/1
f 170/9/1 171/10/1 150/11/1 149/12/1
f 171/5/1 172/6/1 151/7/1 150/8/1
f 172/9/1 173/10/1 152/11/1 151/12/1
f 173/9/1 174/10/1 153/11/1 152/12/1
f 174/9/1 175/10/1 154/11/1 153/12/1
f 175/5/1 176/6/1 155/7/1 154/8/1
f 176/9/1 177/10/1 156/11/1 155/12/1
f 177/9/1 178/10/1 157/11/1 156/12/1
f 178/9/1 179/10/1 158/11/1 157/12/1
f 179/1/1 180/2/1 159/3/1 158/4/1
f 180/13/1 181/14/1 160/15/1 159/16/1
f 181/9/1 182/10/1 161/11/1 160/12/1
f 182/9/1 183/10/1 162/11/1 161/12/1
f 183/17/1 184/18/1 163/19/1 162/20/1
f 184/9/1 185/10/1 164/11/1 163/12/1
f 185/9/1 186/10/1 165/11/1 164/12/1
f 186/9/1 187/10/1 166/11/1 165/12/1
f 187/9/1 188/10/1 167/11/1 166/12/1
f 188/9/1 189/10/1 168/11/1 167/12/1
f 190/9/1 191/10/1 170/11/1 169/12/1
f 191/13/1 192/14/1 171/15/1 170/16/1
f 192/13/1 193/14/1 172/15/1 171/16/1
f 193/9/1 194/10/1 173/11/1 172/12/1
f 194/9/1 195/10/1 174/11/1 173/12/1
f 195/9/1 196/10/1 175/11/1 174/12/1
f 196/13/1 197/14/1 176/15/1 175/16/1
f 197/1/1 198/2/1 177/3/1 176/4/1
f 198/9/1 199/10/1 178/11/1 177/12/1
f 199/13/1 200/14/1 179/15/1 178/16/1
f 200/9/1 201/10/1 180/11/1 179/12/1
f 201/9/1 202/10/1 181/11/1 180/12/1
f 202/13/1 203/14/1 182/15/1 181/16/1
f 203/1/1 204/2/1 183/3/1 182/4/1
f 204/5/1 205/6/1 184/7/1 183/8/1
f 205/9/1 206/10/1 185/11/1 184/12/1
f 206/9/1 207/10/1 186/11/1 185/12/1
f 207/9/1 208/10/1 187/11/1 186/12/1
f 208/9/1 209/10/1 188/11/1 187/12/1
f 209/1/1 210/2/1 189/3/1 188/4/1
f 211/9/1 212/10/1 191/11/1 190/12/1
f 212/13/1 213/14/1 192/15/1 191/16/1
f 213/13/1 214/14/1 193/15/1 192/16/1
f 214/13/1 215/14/1 194/15/1 193/16/1
f 215/1/1 216/2/1 195/3/1 194/4/1
f 216/13/1 217/14/1 196/15/1 195/16/1
f 217/9/1 218/10/1 197/11/1 196/12/1
f 218/9/1 219/10/1 198/11/1 197/12/1
f 219/9/1 220/10/1 199/11/1 198/12/1
f 220/9/1 221/10/1 200/11/1 199/12/1
f 221/9/1 222/10/1 201/11/1 200/12/1
f 222/9/1 223/10/1 202/11/1 201/12/1
f 223/9/1 224/10/1 203/11/1 202/12/1
f 224/9/1 225/10/1 204/11/1 203/12/1
f 225/9/1 226/10/1 205/11/1 204/12/1
f 226/9/1 227/10/1 206/11/1 205/12/1
f 227/1/1 228/2/1 207/3/1 206/4/1
f 228/9/1 229/10/1 208/11/1 207/12/1
f 229/9/1 230/10/1 209/11/1 208/12/1
f 230/9/1 231/10/1 210/11/1 209/12/1
f 232/9/1 233/10/1 212/11/1 211/12/1
f 233/1/1 234/2/1 213/3/1 212/4/1
f 234/9/1 235/10/1 214/11/1 213/12/1
f 235/9/1 236/10/1 215/11/1 214/12/1
f 236/9/1 237/10/1 216/11/1 215/12/1
f 237/9/1 238/10/1 217/11/1 216/12/1
f 238/9/1 239/10/1 218/11/1 217/12/1
f 239/9/1 240/10/1 219/11/1 218/12/1
f 240/9/1 241/10/1 220/11/1 219/12/1
f 241/9/1 242/10/1 221/11/1 220/12/1
f 242/1/1 243/2/1 222/3/1 221/4/1
f 243/9/1 244/10/1 223/11/1 222/12/1
f 244/9/1 245/10/1 224/11/1 223/12/1
f 245/9/1 246/10/1 225/11/1 224/12/1
f 246/9/1 247/10/1 226/11/1 225/12/1
f 247/13/1 248/14/1 227/15/1 226/16/1
f 248/9/1 249/10/1 228/11/1 227/12/1
f 249/13/1 250/14/1 229/15/1 228/16/1
f 250/9/1 251/10/1 230/11/1 229/12/1
f 251/9/1 252/10/1 231/11/1 230/12/1
f 253/9/1 254/10/1 233/11/1 232/12/1
f 254/9/1 255/10/1 234/11/1 233/12/1
f 255/9/1 256/10/1 235/11/1 234/12/1
f 256/9/1 257/10/1 236/11/1 235/12/1
f 257/13/1 258/14/1 237/15/1 236/16/1
f 258/9/1 259/10/1 238/11/1 237/12/1
f 259/9/1 260/10/1 239/11/1 238/12/1
f 260/9/1 261/10/1 240/11/1 239/12/1
f 261/1/1 262/2/1 241/3/1 240/4/1
f 262/9/1 263/10/1 242/11/1 241/12/1
f 263/9/1 264/10/1 243/11/1 242/12/1
f 264/5/1 265/6/1 244/7/1 243/8/1
f 265/13/1 266/14/1 245/15/1 244/16/1
f 266/1/1 267/2/1 246/3/1 245/4/1
f 267/13/1 268/14/1 247/15/1 246/16/1
f 268/5/1 269/6/1 248/7/1 247/8/1
f 269/9/1 270/10/1 249/11/1 248/12/1
f 270/13/1 271/14/1 250/15/1 249/16/1
f 271/13/1 272/14/1 251/15/1 250/16/1
f 272/9/1 273/10/1 252/11/1 251/12/1
f 274/9/1 275/10/1 254/11/1 253/12/1
f 275/9/1 276/10/1 255/11/1 254/12/1
f 276/9/1 277/10/1 256/11/1 255/12/1
f 277/1/1 278/2/1 257/3/1 256/4/1
f 278/9/1 279/10/1 258/11/1 257/12/1
f 279/9/1 280/10/1 259/11/1 258/12/1
f 280/9/1 281/10/1 260/11/1 259/12/1
f 281/9/1 282/10/1 261/11/1 260/12/1
f 282/9/1 283/10/1 262/11/1 261/12/1
f 283/9/1 284/10/1 263/11/1 262/12/1
f 284/9/1 285/10/1 264/11/1 263/12/1
f 285/9/1 286/10/1 265/11/1 264/12/1
f 286/9/1 287/10/1 266/11/1 265/12/1
f 287/9/1 288/10/1 267/11/1 266/12/1
f 288/9/1 289/10/1 268/11/1 267/12/1
f 289/9/1 290/10/1 269/11/1 268/12/1
f 290/9/1 291/10/1 270/11/1 269/12/1
f 291/9/1 292/10/1 271/11/1 270/12/1
f 292/13/1 293/14/1 272/15/1 271/16/1
f 293/9/1 294/10/1 273/11/1 272/12/1
f 295/17/1 296/18/1 275/19/1 274/20/1
f 296/1/1 297/2/1 276/3/1 275/4/1
f 297/9/1 298/10/1 277/11/1 276/12/1
f 298/13/1 299/14/1 278/15/1 277/16/1
f 299/9/1 300/10/1 279/11/1 278/12/1
f 300/9/1 301/10/1 280/11/1 279/12/1
f 301/9/1 302/10/1 281/11/1 280/12/1
f 302/9/1 303/10/1 282/11/1 281/12/1
f 303/5/1 304/6/1 283/7/1 282/8/1
f 304/9/1 305/10/1 284/11/1 283/12/1
f 305/9/1 306/10/1 285/11/1 284/12/1
f 306/1/1 307/2/1 286/3/1 285/4/1
f 307/9/1 308/10/1 287/11/1 286/12/1
f 308/5/1 309/6/1 288/7/1 287/8/1
f 309/9/1 310/10/1 289/11/1 288/12/1
f 310/1/1 311/2/1 290/3/1 289/4/1
f 311/9/1 312/10/1 291/11/1 290/12/1
f 312/9/1 313/10/1 292/11/1 291/12/1
f 313/1/1 314/2/1 293/3/1 292/4/1
f 314/9/1 315/10/1 294/11/1 293/12/1
f 316/9/1 317/10/1 296/11/1 295/12/1
f 317/9/1 318/10/1 297/11/1 296/12/1
f 318/9/1 319/10/1 298/11/1 297/12/1
f 319/1/1 320/2/1 299/3/1 298/4/1
f 320/9/1 321/10/1 300/11/1 299/12/1
f 321/9/1 322/10/1 301/11/1 300/12/1
f 322/9/1 323/10/1 302/11/1 301/12/1
f 323/9/1 324/10/1 303/11/1 302/12/1
f 324/9/1 325/10/1 304/11/1 303/12/1
f 325/9/1 326/10/1 305/11/1 304/12/1
f 326/13/1 327/14/1 306/15/1 305/16/1
f 327/9/1 328/10/1 307/11/1 306/12/1
f 328/9/1 329/10/1 308/11/1 307/12/1
f 329/1/1 330/2/1 309/3/1 308/4/1
f 330/9/1 331/10/1 310/11/1 309/12/1
f 331/9/1 332/10/1 311/11/1 310/12/1
f 332/9/1 333/10/1 312/11/1 311/12/1
f 333/9/1 334/10/1 313/11/1 312/12/1
f 334/9/1 335/10/1 314/11/1 313/12/1
f 335/9/1 336/10/1 315/11/1 314/12/1
f 337/1/1 338/2/1 317/3/1 316/4/1
f 338/9/1 339/10/1 318/11/1 317/12/1
f 339/9/1 340/10/1 319/11/1 318/12/1
f 340/9/1 341/10/1 320/11/1 319/12/1
f 341/5/1 342/6/1 321/7/1 320/8/1
f 342/17/1 343/18/1 322/19/1 321/20/1
f 343/1/1 344/2/1 323/3/1 322/4/1
f 344/9/1 345/10/1 324/11/1 323/12/1
f 345/9/1 346/10/1 325/11/1 324/12/1
f 346/9/1 347/10/1 326/11/1 325/12/1
f 347/13/1 348/14/1 327/15/1 326/16/1
f 348/9/1 349/10/1 328/11/1 327/12/1
f 349/13/1 350/14/1 329/15/1 328/16/1
f 350/9/1 351/10/1 330/11/1 329/12/1
f 351/9/1 352/10/1 331/11/1 330/12/1
f 352/9/1 353/10/1 332/11/1 331/12/1
f 353/1/1 354/2/1 333/3/1 332/4/1
f 354/13/1 355/14/1 334/15/1 333/16/1
f 355/13/1 356/14/1 335/15/1 334/16/1
f 356/5/1 357/6/1 336/7/1 335/8/1
f 358/13/1 359/14/1 338/15/1 337/16/1
f 359/9/1 360/10/1 339/11/1 338/12/1
f 360/9/1 361/10/1 340/11/1 339/12/1
f 361/9/1 362/10/1 341/11/1 340/12/1
f 362/9/1 363/10/1 342/11/1 341/12/1
f 363/9/1 364/10/1 343/11/1 342/12/1
f 364/9/1 365/10/1 344/11/1 343/12/1
f 365/9/1 366/10/1 345/11/1 344/12/1
f 366/9/1 367/10/1 346/11/1 345/12/1
f 367/5/1 368/6/1 347/7/1 346/8/1
f 368/9/1 369/10/1 348/11/1 347/12/1
f 369/9/1 370/10/1 349/11/1 348/12/1
f 370/9/1 371/10/1 350/11/1 349/12/1
f 371/1/1 372/2/1 351/3/1 350/4/1
f 372/5/1 373/6/1 352/7/1 351/8/1
f 373/9/1 374/10/1 353/11/1 352/12/1
f 374/9/1 375/10/1 354/11/1 353/12/1
f 375/9/1 376/10/1 355/11/1 354/12/1
f 376/9/1 377/10/1 356/11/1 355/12/1
f 377/9/1 378/10/1 357/11/1 356/12/1
f 379/5/1 380/6/1 359/7/1 358/8/1
f 380/9/1 381/10/1 360/11/1 359/12/1
f 381/9/1 382/10/1 361/11/1 360/12/1
f 382/9/1 383/10/1 362/11/1 361/12/1
f 383/9/1 384/10/1 363/11/1 362/12/1
f 384/9/1 385/10/1 364/11/1 363/12/1
f 385/9/1 386/10/1 365/11/1 364/12/1
f 386/9/1 387/10/1 366/11/1 365/12/1
f 387/1/1 388/2/1 367/3/1 366/4/1
f 388/9/1 389/10/1 368/11/1 367/12/1
f 389/9/1 390/10/1 369/11/1 368/12/1
f 390/9/1 391/10/1 370/11/1 369/12/1
f 391/9/1 392/10/1 371/11/1 370/12/1
f 392/9/1 393/10/1 372/11/1 371/12/1
f 393/9/1 394/10/1 373/11/1 372/12/1
f 394/9/1 395/10/1 374/11/1 373/12/1
f 395/5/1 396/6/1 375/7/1 374/8/1
f 396/13/1 397/14/1 376/15/1 375/16/1
f 397/9/1 398/10/1 377/11/1 376/12/1
f 398/13/1 399/14/1 378/15/1 377/16/1
f 400/9/1 401/10/1 380/11/1 379/12/1
f 401/9/1 402/10/1 381/11/1 380/12/1
f 402/13/1 403/14/1 382/15/1 381/16/1
f 403/9/1 404/10/1 383/11/1 382/12/1
f 404/9/1 405/10/1 384/11/1 383/12/1
f 405/1/1 406/2/1 385/3/1 384/4/1
f 406/9/1 407/10/1 386/11/1 385/12/1
f 407/9/1 408/10/1 387/11/1 386/12/1
f 408/9/1 409/10/1 388/11/1 387/12/1
f 409/9/1 410/10/1 389/11/1 388/12/1
f 410/9/1 411/10/1 390/11/1 389/12/1
f 411/9/1 412/10/1 391/11/1 390/12/1
f 412/9/1 413/10/1 392/11/1 391/12/1
f 413/9/1 414/10/1 393/11/1 392/12/1
f 414/9/1 415/10/1 394/11/1 393/12/1
f 415/13/1 416/14/1 395/15/1 394/16/1
f 416/17/1 417/18/1 396/19/1 395/20/1
f 417/9/1 418/10/1 397/11/1 396/12/1
f 418/1/1 419/2/1 398/3/1 397/4/1
f 419/9/1 420/10/1 399/11/1 398/12/1
f 421/9/1 422/10/1 401/11/1 400/12/1
f 422/1/1 423/2/1 402/3/1 401/4/1
f 423/5/1 424/6/1 403/7/1 402/8/1
f 424/9/1 425/10/1 404/11/1 403/12/1
f 425/9/1 426/10/1 405/11/1 404/12/1
f 426/9/1 427/10/1 406/11/1 405/12/1
f 427/9/1 428/10/1 407/11/1 406/12/1
f 428/9/1 429/10/1 408/11/1 407/12/1
f 429/9/1 430/10/1 409/11/1 408/12/1
f 430/9/1 431/10/1 410/11/1 409/12/1
f 431/5/1 432/6/1 411/7/1 410/8/1
f 432/9/1 433/10/1 412/11/1 411/12/1
f 433/9/1 434/10/1 413/11/1 412/12/1
f 434/9/1 435/10/1 414/11/1 413/12/1
f 435/13/1 436/14/1 415/15/1 414/16/1
f 436/9/1 437/10/1 416/11/1 415/12/1
f 437/9/1 438/10/1 417/11/1 416/12/1
f 438/1/1 439/2/1 418/3/1 417/4/1
f 439/9/1 440/10/1 419/11/1 418/12/1
f 440/9/1 441/10/1 420/11/1 419/12/1

