# Wavefront OBJ file automatically generated by Tiled2Unity

# Vertices (Count = 110)
v 0 -30 0
v -30 -30 0
v -30 0 0
v 0 0 0
v -60 -30 0
v -60 0 0
v -90 -30 0
v -90 0 0
v -120 -30 0
v -120 0 0
v -150 -30 0
v -150 0 0
v -180 -30 0
v -180 0 0
v -210 -30 0
v -210 0 0
v -240 -30 0
v -240 0 0
v -270 -30 0
v -270 0 0
v -300 -30 0
v -300 0 0
v -330 -30 0
v -330 0 0
v -360 -30 0
v -360 0 0
v -390 -30 0
v -390 0 0
v -420 -30 0
v -420 0 0
v -450 -30 0
v -450 0 0
v -480 -30 0
v -480 0 0
v -510 -30 0
v -510 0 0
v -540 -30 0
v -540 0 0
v -570 -30 0
v -570 0 0
v -600 -30 0
v -600 0 0
v -630 -30 0
v -630 0 0
v -660 -30 0
v -660 0 0
v -690 -30 0
v -690 0 0
v -720 -30 0
v -720 0 0
v -750 -30 0
v -750 0 0
v -780 -30 0
v -780 0 0
v -810 -30 0
v -810 0 0
v -840 -30 0
v -840 0 0
v -870 -30 0
v -870 0 0
v -900 -30 0
v -900 0 0
v -930 -30 0
v -930 0 0
v -960 -30 0
v -960 0 0
v -990 -30 0
v -990 0 0
v -1020 -30 0
v -1020 0 0
v -1050 -30 0
v -1050 0 0
v -1080 -30 0
v -1080 0 0
v -1110 -30 0
v -1110 0 0
v -1140 -30 0
v -1140 0 0
v -1170 -30 0
v -1170 0 0
v -1200 -30 0
v -1200 0 0
v -1230 -30 0
v -1230 0 0
v -1260 -30 0
v -1260 0 0
v -1290 -30 0
v -1290 0 0
v -1320 -30 0
v -1320 0 0
v -1350 -30 0
v -1350 0 0
v -1380 -30 0
v -1380 0 0
v -1410 -30 0
v -1410 0 0
v -1440 -30 0
v -1440 0 0
v -1470 -30 0
v -1470 0 0
v -1500 -30 0
v -1500 0 0
v -1530 -30 0
v -1530 0 0
v -1560 -30 0
v -1560 0 0
v -1590 -30 0
v -1590 0 0
v -1620 -30 0
v -1620 0 0

# Texture cooridinates (Count = 4)
vt 0.0001220703 0.0001220703
vt 0.9998779 0.0001220703
vt 0.9998779 0.9998779
vt 0.0001220703 0.9998779

# Normal
vn 0 0 -1

# Groups (Count = 1)

g mesh_0001
f 1/1/1 2/2/1 3/3/1 4/4/1
f 2/1/1 5/2/1 6/3/1 3/4/1
f 5/1/1 7/2/1 8/3/1 6/4/1
f 7/1/1 9/2/1 10/3/1 8/4/1
f 9/1/1 11/2/1 12/3/1 10/4/1
f 11/1/1 13/2/1 14/3/1 12/4/1
f 13/1/1 15/2/1 16/3/1 14/4/1
f 15/1/1 17/2/1 18/3/1 16/4/1
f 17/1/1 19/2/1 20/3/1 18/4/1
f 19/1/1 21/2/1 22/3/1 20/4/1
f 21/1/1 23/2/1 24/3/1 22/4/1
f 23/1/1 25/2/1 26/3/1 24/4/1
f 25/1/1 27/2/1 28/3/1 26/4/1
f 27/1/1 29/2/1 30/3/1 28/4/1
f 29/1/1 31/2/1 32/3/1 30/4/1
f 31/1/1 33/2/1 34/3/1 32/4/1
f 33/1/1 35/2/1 36/3/1 34/4/1
f 35/1/1 37/2/1 38/3/1 36/4/1
f 37/1/1 39/2/1 40/3/1 38/4/1
f 39/1/1 41/2/1 42/3/1 40/4/1
f 41/1/1 43/2/1 44/3/1 42/4/1
f 43/1/1 45/2/1 46/3/1 44/4/1
f 45/1/1 47/2/1 48/3/1 46/4/1
f 47/1/1 49/2/1 50/3/1 48/4/1
f 49/1/1 51/2/1 52/3/1 50/4/1
f 51/1/1 53/2/1 54/3/1 52/4/1
f 53/1/1 55/2/1 56/3/1 54/4/1
f 55/1/1 57/2/1 58/3/1 56/4/1
f 57/1/1 59/2/1 60/3/1 58/4/1
f 59/1/1 61/2/1 62/3/1 60/4/1
f 61/1/1 63/2/1 64/3/1 62/4/1
f 63/1/1 65/2/1 66/3/1 64/4/1
f 65/1/1 67/2/1 68/3/1 66/4/1
f 67/1/1 69/2/1 70/3/1 68/4/1
f 69/1/1 71/2/1 72/3/1 70/4/1
f 71/1/1 73/2/1 74/3/1 72/4/1
f 73/1/1 75/2/1 76/3/1 74/4/1
f 75/1/1 77/2/1 78/3/1 76/4/1
f 77/1/1 79/2/1 80/3/1 78/4/1
f 79/1/1 81/2/1 82/3/1 80/4/1
f 81/1/1 83/2/1 84/3/1 82/4/1
f 83/1/1 85/2/1 86/3/1 84/4/1
f 85/1/1 87/2/1 88/3/1 86/4/1
f 87/1/1 89/2/1 90/3/1 88/4/1
f 89/1/1 91/2/1 92/3/1 90/4/1
f 91/1/1 93/2/1 94/3/1 92/4/1
f 93/1/1 95/2/1 96/3/1 94/4/1
f 95/1/1 97/2/1 98/3/1 96/4/1
f 97/1/1 99/2/1 100/3/1 98/4/1
f 99/1/1 101/2/1 102/3/1 100/4/1
f 101/1/1 103/2/1 104/3/1 102/4/1
f 103/1/1 105/2/1 106/3/1 104/4/1
f 105/1/1 107/2/1 108/3/1 106/4/1
f 107/1/1 109/2/1 110/3/1 108/4/1

