# Wavefront OBJ file automatically generated by Tiled2Unity

# Vertices (Count = 42)
v 0 -30 0
v -30 -30 0
v -30 0 0
v 0 0 0
v -60 -30 0
v -60 0 0
v -90 -30 0
v -90 0 0
v -120 -30 0
v -120 0 0
v -150 -30 0
v -150 0 0
v -180 -30 0
v -180 0 0
v -210 -30 0
v -210 0 0
v -240 -30 0
v -240 0 0
v -270 -30 0
v -270 0 0
v -300 -30 0
v -300 0 0
v -330 -30 0
v -330 0 0
v -360 -30 0
v -360 0 0
v -390 -30 0
v -390 0 0
v -420 -30 0
v -420 0 0
v -450 -30 0
v -450 0 0
v -480 -30 0
v -480 0 0
v -510 -30 0
v -510 0 0
v -540 -30 0
v -540 0 0
v -570 -30 0
v -570 0 0
v -600 -30 0
v -600 0 0

# Texture cooridinates (Count = 4)
vt 0.0001220703 0.0001220703
vt 0.9998779 0.0001220703
vt 0.9998779 0.9998779
vt 0.0001220703 0.9998779

# Normal
vn 0 0 -1

# Groups (Count = 1)

g mesh_0001
f 1/1/1 2/2/1 3/3/1 4/4/1
f 2/1/1 5/2/1 6/3/1 3/4/1
f 5/1/1 7/2/1 8/3/1 6/4/1
f 7/1/1 9/2/1 10/3/1 8/4/1
f 9/1/1 11/2/1 12/3/1 10/4/1
f 11/1/1 13/2/1 14/3/1 12/4/1
f 13/1/1 15/2/1 16/3/1 14/4/1
f 15/1/1 17/2/1 18/3/1 16/4/1
f 17/1/1 19/2/1 20/3/1 18/4/1
f 19/1/1 21/2/1 22/3/1 20/4/1
f 21/1/1 23/2/1 24/3/1 22/4/1
f 23/1/1 25/2/1 26/3/1 24/4/1
f 25/1/1 27/2/1 28/3/1 26/4/1
f 27/1/1 29/2/1 30/3/1 28/4/1
f 29/1/1 31/2/1 32/3/1 30/4/1
f 31/1/1 33/2/1 34/3/1 32/4/1
f 33/1/1 35/2/1 36/3/1 34/4/1
f 35/1/1 37/2/1 38/3/1 36/4/1
f 37/1/1 39/2/1 40/3/1 38/4/1
f 39/1/1 41/2/1 42/3/1 40/4/1

